<svg preserveAspectRatio="none" width="100%" height="100%" overflow="visible" style="display: block;" viewBox="0 0 17.8259 16.1233" fill="none" xmlns="http://www.w3.org/2000/svg">
<path id="Icon" fill-rule="evenodd" clip-rule="evenodd" d="M4.35892 0C3.87132 0 3.41599 0.243689 3.14552 0.649395L0.154497 5.13592C-0.0286139 5.41059 -0.0505116 5.76231 0.0971172 6.05757C1.73387 9.33108 4.0085 12.2444 6.7873 14.6262L8.24623 15.8767C8.62988 16.2056 9.19599 16.2056 9.57964 15.8767L11.0386 14.6262C13.8174 12.2444 16.092 9.33108 17.7288 6.05757C17.8764 5.76231 17.8545 5.41059 17.6714 5.13592L14.6804 0.649395C14.4099 0.243689 13.9545 0 13.4669 0H4.35892ZM4.18558 1.34277C4.22422 1.28481 4.28927 1.25 4.35892 1.25H6.30876L4.71283 5.08024C4.67607 5.16847 4.64832 5.25946 4.62962 5.35187C4.0431 5.30821 3.45707 5.25558 2.87175 5.19396L1.70032 5.07066L4.18558 1.34277ZM1.64515 6.32176C3.13965 9.06339 5.11311 11.5178 7.47395 13.5677L4.86939 6.62222C4.15911 6.5734 3.4495 6.51169 2.74089 6.4371L1.64515 6.32176ZM6.23361 6.70013L8.91294 13.845L11.5923 6.70013C9.80697 6.78135 8.01891 6.78135 6.23361 6.70013ZM12.9565 6.62222L10.3519 13.5677C12.7128 11.5178 14.6862 9.06339 16.1807 6.32175L15.085 6.4371C14.3764 6.51169 13.6668 6.57339 12.9565 6.62222ZM16.1255 5.07066L14.9541 5.19396C14.3688 5.25558 13.7828 5.30821 13.1963 5.35186C13.1776 5.25946 13.1498 5.16847 13.113 5.08024L11.5171 1.25H13.4669C13.5366 1.25 13.6017 1.28481 13.6403 1.34277L16.1255 5.07066ZM11.906 5.43337C9.91198 5.53694 7.9139 5.53694 5.91986 5.43338L7.66293 1.25H10.1629L11.906 5.43337Z" fill="var(--fill-0, #1A1A1A)"/>
</svg>
