<svg preserveAspectRatio="none" width="100%" height="100%" overflow="visible" style="display: block;" viewBox="0 0 15.6484 12.5779" fill="none" xmlns="http://www.w3.org/2000/svg">
<path id="Icon" fill-rule="evenodd" clip-rule="evenodd" d="M0.160585 3.25004C-0.0728679 5.41912 -0.0624617 7.92078 0.262391 10.081C0.442139 11.2764 1.4177 12.1927 2.62192 12.2974L3.88045 12.4068C6.50465 12.6349 9.14371 12.6349 11.7679 12.4068L13.0264 12.2974C14.2307 12.1927 15.2062 11.2764 15.386 10.081C15.7108 7.92077 15.7212 5.41926 15.4878 3.25017C15.4576 2.9987 15.4237 2.74757 15.386 2.49687C15.2062 1.30154 14.2307 0.38517 13.0264 0.280489L11.7679 0.171088C9.1437 -0.0570294 6.50465 -0.0570292 3.88045 0.171088L2.62192 0.280489C1.4177 0.38517 0.442139 1.30154 0.262391 2.49687C0.224697 2.74753 0.190762 2.99862 0.160585 3.25004ZM3.9887 1.41639C6.54087 1.19454 9.10748 1.19454 11.6597 1.41639L12.9182 1.52579C13.5468 1.58044 14.056 2.05878 14.1499 2.68275C14.1596 2.74754 14.1691 2.81237 14.1783 2.87723L9.54413 5.45177C8.47447 6.04602 7.17383 6.04602 6.10416 5.45177L1.47005 2.87726C1.47927 2.81239 1.48875 2.74755 1.49849 2.68275C1.59232 2.05878 2.10157 1.58044 2.73017 1.52579L3.9887 1.41639ZM14.3313 4.2222C14.4929 6.11199 14.4324 8.01604 14.1499 9.89517C14.056 10.5191 13.5468 10.9975 12.9182 11.0521L11.6597 11.1615C9.10749 11.3834 6.54087 11.3834 3.9887 11.1615L2.73017 11.0521C2.10157 10.9975 1.59232 10.5191 1.49849 9.89517C1.21592 8.01604 1.15545 6.11201 1.31709 4.22223L5.49711 6.54446C6.9443 7.34846 8.704 7.34846 10.1512 6.54446L14.3313 4.2222Z" fill="var(--fill-0, #F6F4F1)"/>
</svg>
