<svg preserveAspectRatio="none" width="100%" height="100%" overflow="visible" style="display: block;" viewBox="0 0 8.45833 15.2083" fill="none" xmlns="http://www.w3.org/2000/svg">
<path id="Union" d="M6.10417 0C5.08198 0 4.10166 0.406063 3.37886 1.12886C2.65606 1.85166 2.25 2.83198 2.25 3.85417V6H0.1875C0.0839465 6 0 6.08395 0 6.1875V9.02083C0 9.12439 0.0839466 9.20833 0.1875 9.20833H2.25V15.0208C2.25 15.1244 2.33395 15.2083 2.4375 15.2083H5.27083C5.37439 15.2083 5.45833 15.1244 5.45833 15.0208V9.20833H7.5391C7.62514 9.20833 7.70014 9.14978 7.721 9.06631L8.42934 6.23298C8.45892 6.11464 8.36942 6 8.24744 6H5.45833V3.85417C5.45833 3.68288 5.52638 3.51861 5.64749 3.39749C5.76861 3.27638 5.93288 3.20833 6.10417 3.20833H8.27083C8.37439 3.20833 8.45833 3.12439 8.45833 3.02083V0.1875C8.45833 0.0839467 8.37439 0 8.27083 0H6.10417Z" fill="var(--fill-0, #3A3A3A)"/>
</svg>
