<svg preserveAspectRatio="none" width="100%" height="100%" overflow="visible" style="display: block;" viewBox="0 0 20 20" fill="none" xmlns="http://www.w3.org/2000/svg">
<g id="gallery">
<path id="Vector" d="M7.50685 18.3299H12.5069C16.6735 18.3299 18.3402 16.6632 18.3402 12.4966V7.49657C18.3402 3.32991 16.6735 1.66324 12.5069 1.66324H7.50685C3.34019 1.66324 1.67352 3.32991 1.67352 7.49657V12.4966C1.67352 16.6632 3.34019 18.3299 7.50685 18.3299Z" stroke="var(--stroke-0, #F95C4B)" stroke-width="1.5" stroke-linecap="round" stroke-linejoin="round"/>
<path id="Vector_2" d="M7.49315 8.33333C8.41362 8.33333 9.15981 7.58714 9.15981 6.66667C9.15981 5.74619 8.41362 5 7.49315 5C6.57267 5 5.82648 5.74619 5.82648 6.66667C5.82648 7.58714 6.57267 8.33333 7.49315 8.33333Z" stroke="var(--stroke-0, #F95C4B)" stroke-width="1.5" stroke-linecap="round" stroke-linejoin="round"/>
<path id="Vector_3" d="M2.22862 15.7917L6.33695 13.0334C6.99529 12.5917 7.94529 12.6417 8.53695 13.15L8.81195 13.3917C9.46195 13.95 10.512 13.95 11.162 13.3917L14.6286 10.4167C15.2786 9.85836 16.3286 9.85836 16.9786 10.4167L18.337 11.5834" stroke="var(--stroke-0, #F95C4B)" stroke-width="1.5" stroke-linecap="round" stroke-linejoin="round"/>
<g id="Vector_4" opacity="0">
</g>
</g>
</svg>
