<svg preserveAspectRatio="none" width="100%" height="100%" overflow="visible" style="display: block;" viewBox="0 0 15.3201 15.3459" fill="none" xmlns="http://www.w3.org/2000/svg">
<g id="Subtract">
<path d="M7.66006 4.96464C6.16429 4.96464 4.95173 6.1772 4.95173 7.67297C4.95173 9.16874 6.16429 10.3813 7.66006 10.3813C9.15584 10.3813 10.3684 9.16874 10.3684 7.67297C10.3684 6.1772 9.15584 4.96464 7.66006 4.96464Z" fill="var(--fill-0, #3A3A3A)"/>
<path fill-rule="evenodd" clip-rule="evenodd" d="M3.30135 0.240861C6.17478 -0.0802871 9.14537 -0.0802871 12.0188 0.240861C13.6008 0.417673 14.8768 1.66415 15.0625 3.2517C15.406 6.1892 15.406 9.15674 15.0625 12.0942C14.8768 13.6818 13.6008 14.9283 12.0188 15.1051C9.14537 15.4262 6.17478 15.4262 3.30135 15.1051C1.71935 14.9283 0.443353 13.6818 0.257676 12.0942C-0.0858919 9.15674 -0.0858919 6.1892 0.257676 3.2517C0.443353 1.66415 1.71935 0.417673 3.30135 0.240861ZM11.8267 2.67297C11.3665 2.67297 10.9934 3.04607 10.9934 3.5063C10.9934 3.96654 11.3665 4.33964 11.8267 4.33964C12.287 4.33964 12.6601 3.96654 12.6601 3.5063C12.6601 3.04607 12.287 2.67297 11.8267 2.67297ZM3.70173 7.67297C3.70173 5.48684 5.47394 3.71464 7.66006 3.71464C9.84619 3.71464 11.6184 5.48684 11.6184 7.67297C11.6184 9.8591 9.84619 11.6313 7.66006 11.6313C5.47394 11.6313 3.70173 9.8591 3.70173 7.67297Z" fill="var(--fill-0, #3A3A3A)"/>
</g>
</svg>
