<svg preserveAspectRatio="none" width="100%" height="100%" overflow="visible" style="display: block;" viewBox="0 0 9.64237 12.7216" fill="none" xmlns="http://www.w3.org/2000/svg">
<path id="Icon" fill-rule="evenodd" clip-rule="evenodd" d="M1.69197 3.65396L1.92068 5.71233L1.45786 5.74928C0.812468 5.8008 0.285468 6.28596 0.180846 6.9249C-0.0602819 8.3975 -0.0602819 9.89951 0.180846 11.3721C0.285468 12.0111 0.812469 12.4962 1.45786 12.5477L2.45529 12.6274C4.03005 12.7531 5.61233 12.7531 7.18709 12.6274L8.18451 12.5477C8.8299 12.4962 9.35691 12.0111 9.46153 11.3721C9.70265 9.89951 9.70265 8.3975 9.46153 6.9249C9.35691 6.28596 8.8299 5.8008 8.18451 5.74928L7.72162 5.71233L7.95033 3.65395C7.97729 3.4113 7.97729 3.16641 7.95033 2.92376L7.93515 2.78716C7.77416 1.33824 6.63509 0.191796 5.18724 0.0214603C4.94402 -0.00715343 4.69829 -0.00715343 4.45507 0.0214603C3.00721 0.191796 1.86814 1.33824 1.70715 2.78716L1.69197 2.92376C1.66501 3.16641 1.66501 3.4113 1.69197 3.65396ZM5.07039 1.01461C4.9048 0.99513 4.7375 0.99513 4.57191 1.01461C3.58616 1.13058 2.81064 1.91112 2.70104 2.89759L2.68586 3.03419C2.66705 3.20345 2.66705 3.37427 2.68586 3.54352L2.91839 5.63632C4.1856 5.55505 5.45671 5.55505 6.72391 5.63631L6.95645 3.54352C6.97525 3.37427 6.97525 3.20345 6.95645 3.03419L6.94127 2.89759C6.83166 1.91112 6.05615 1.13058 5.07039 1.01461ZM4.82117 8.1485C4.26888 8.1485 3.82117 8.59622 3.82117 9.1485C3.82117 9.70079 4.26888 10.1485 4.82117 10.1485C5.37345 10.1485 5.82117 9.70079 5.82117 9.1485C5.82117 8.59622 5.37345 8.1485 4.82117 8.1485Z" fill="var(--fill-0, white)"/>
</svg>
