<svg preserveAspectRatio="none" width="100%" height="100%" overflow="visible" style="display: block;" viewBox="0 0 14.5833 16.25" fill="none" xmlns="http://www.w3.org/2000/svg">
<path id="Icon" fill-rule="evenodd" clip-rule="evenodd" d="M9.16667 2.70833C9.16667 1.21256 10.3792 0 11.875 0C13.3708 0 14.5833 1.21256 14.5833 2.70833C14.5833 4.2041 13.3708 5.41667 11.875 5.41667C11.0753 5.41667 10.3566 5.07008 9.86081 4.51892L7.59639 5.75406L5.06262 7.20192C5.28794 7.597 5.41667 8.0543 5.41667 8.54167C5.41667 8.78862 5.38361 9.02786 5.32169 9.2552L9.86081 11.7311C10.3566 11.1799 11.0753 10.8333 11.875 10.8333C13.3708 10.8333 14.5833 12.0459 14.5833 13.5417C14.5833 15.0374 13.3708 16.25 11.875 16.25C10.3792 16.25 9.16667 15.0374 9.16667 13.5417C9.16667 13.2947 9.19972 13.0555 9.26165 12.8281L4.72253 10.3522C4.22677 10.9034 3.50802 11.25 2.70833 11.25C1.21256 11.25 0 10.0374 0 8.54167C0 7.0459 1.21256 5.83333 2.70833 5.83333C3.25056 5.83333 3.75558 5.99268 4.1791 6.2671L6.98696 4.66261L9.26165 3.42187C9.19972 3.19454 9.16667 2.95529 9.16667 2.70833ZM11.875 1.25C11.0696 1.25 10.4167 1.90292 10.4167 2.70833C10.4167 3.51375 11.0696 4.16667 11.875 4.16667C12.6804 4.16667 13.3333 3.51375 13.3333 2.70833C13.3333 1.90292 12.6804 1.25 11.875 1.25ZM2.70833 7.08333C1.90292 7.08333 1.25 7.73625 1.25 8.54167C1.25 9.34708 1.90292 10 2.70833 10C3.51375 10 4.16667 9.34708 4.16667 8.54167C4.16667 7.73625 3.51375 7.08333 2.70833 7.08333ZM10.4167 13.5417C10.4167 12.7363 11.0696 12.0833 11.875 12.0833C12.6804 12.0833 13.3333 12.7363 13.3333 13.5417C13.3333 14.3471 12.6804 15 11.875 15C11.0696 15 10.4167 14.3471 10.4167 13.5417Z" fill="var(--fill-0, #1A1A1A)"/>
</svg>
