<svg preserveAspectRatio="none" width="100%" height="100%" overflow="visible" style="display: block;" viewBox="0 0 8.31611 14.5315" fill="none" xmlns="http://www.w3.org/2000/svg">
<path id="Vector" d="M7.71372 11.7951C7.68346 11.703 7.58139 11.6565 7.48997 11.6887C7.16553 11.803 6.82518 11.8672 6.48068 11.8788C6.28723 11.8999 6.09153 11.8763 5.90865 11.8098C5.72577 11.7433 5.56059 11.6357 5.42583 11.4954C5.29107 11.355 5.19033 11.1856 5.13136 11.0001C5.07366 10.8186 5.05748 10.6266 5.08394 10.4381C5.08509 10.4299 5.08573 10.4216 5.08573 10.4133V5.89945H7.8252C7.91725 5.89945 7.99186 5.82483 7.99186 5.73278V3.88652C7.99186 3.79447 7.91725 3.71985 7.8252 3.71985H5.08573V0.166666C5.08573 0.074619 5.01111 0 4.91907 0H2.96426C2.93663 0.00184577 2.91074 0.0141375 2.89185 0.0343786C2.87296 0.0546197 2.86248 0.0812926 2.86254 0.10898C2.81673 0.96905 2.52172 1.79722 2.01344 2.49255C1.52785 3.15685 0.867642 3.67249 0.107182 3.98286C0.0430172 4.00905 0 4.07085 0 4.14015V5.73278C0 5.82483 0.0746192 5.89945 0.166667 5.89945H1.45307V10.651C1.45307 12.2711 2.65185 14.5815 5.81227 14.5307C6.82197 14.5307 7.94206 14.1151 8.28236 13.7443C8.31731 13.7062 8.32388 13.6519 8.30774 13.6027L7.71372 11.7951Z" fill="var(--fill-0, #3A3A3A)"/>
</svg>
