<svg preserveAspectRatio="none" width="100%" height="100%" overflow="visible" style="display: block;" viewBox="0 0 16.2545 13.5677" fill="none" xmlns="http://www.w3.org/2000/svg">
<path id="Vector" d="M16.2388 1.85603C16.2871 1.78872 16.2157 1.70182 16.1385 1.73176C15.5896 1.94453 15.0159 2.08809 14.4307 2.15883C15.0823 1.76956 15.5851 1.177 15.8639 0.475444C15.8923 0.403978 15.8142 0.340156 15.7469 0.377334C15.1413 0.711783 14.4882 0.952612 13.8097 1.09131C13.7813 1.09712 13.7521 1.08745 13.7321 1.06641C13.223 0.52918 12.5528 0.171484 11.8222 0.0478764C11.0762 -0.0783277 10.3094 0.0466323 9.64215 0.403158C8.97485 0.759684 8.44476 1.32761 8.13502 2.01786C7.84051 2.67416 7.76105 3.40576 7.9063 4.10836C7.91757 4.16288 7.8749 4.21435 7.81934 4.21089C6.4993 4.12891 5.20954 3.7778 4.02953 3.17872C2.85252 2.58116 1.81025 1.74986 0.966188 0.73608C0.928728 0.691088 0.85773 0.696911 0.830436 0.748704C0.567794 1.24709 0.430281 1.80259 0.430655 2.36717C0.429588 2.92915 0.567502 3.48268 0.832117 3.97847C1.09673 4.47426 1.47984 4.89692 1.94732 5.20883C1.45155 5.19534 0.965445 5.07278 0.523362 4.85056C0.466389 4.82192 0.39805 4.8627 0.401013 4.92639C0.435487 5.66742 0.707531 6.41137 1.17842 6.98214C1.67952 7.58953 2.37503 8.0052 3.14732 8.15883C2.85003 8.24931 2.54138 8.29701 2.23065 8.3005C2.06154 8.29852 1.89275 8.28604 1.72527 8.26315C1.66317 8.25466 1.61246 8.31364 1.6342 8.37243C1.86455 8.99534 2.27149 9.53887 2.80655 9.93563C3.37859 10.3598 4.06863 10.5951 4.78066 10.6088C3.57832 11.5549 2.09389 12.0712 0.563988 12.0755C0.406785 12.076 0.249652 12.0709 0.0928893 12.0602C0.00454928 12.0542 -0.0360798 12.1719 0.0400664 12.2171C1.53071 13.1017 3.23448 13.5693 4.97232 13.5672C6.2554 13.5805 7.52827 13.338 8.71658 12.8539C9.9049 12.3698 10.9848 11.6537 11.8933 10.7476C12.8018 9.84142 13.5206 8.76332 14.0078 7.57625C14.4949 6.38918 14.7407 5.11694 14.7307 3.83383V3.43398C14.7307 3.40767 14.7431 3.38292 14.7641 3.36707C15.3293 2.94029 15.8264 2.43075 16.2388 1.85603Z" fill="var(--fill-0, #3A3A3A)"/>
</svg>
