<svg preserveAspectRatio="none" width="100%" height="100%" overflow="visible" style="display: block;" viewBox="0 0 20 20" fill="none" xmlns="http://www.w3.org/2000/svg">
<g id="video-circle">
<path id="Vector" d="M7.58557 9.99866V8.76532C7.58557 7.17366 8.71057 6.53199 10.0856 7.32366L11.1522 7.94032L12.2189 8.55699C13.5939 9.34866 13.5939 10.6487 12.2189 11.4403L11.1522 12.057L10.0856 12.6737C8.71057 13.4653 7.58557 12.8153 7.58557 11.232V9.99866Z" stroke="var(--stroke-0, #3A3A3A)" stroke-width="1.5" stroke-miterlimit="10" stroke-linecap="round" stroke-linejoin="round"/>
<path id="Vector_2" d="M10.0037 18.3315C14.6061 18.3315 18.3371 14.6005 18.3371 9.99814C18.3371 5.39577 14.6061 1.66481 10.0037 1.66481C5.40135 1.66481 1.67039 5.39577 1.67039 9.99814C1.67039 14.6005 5.40135 18.3315 10.0037 18.3315Z" stroke="var(--stroke-0, #3A3A3A)" stroke-width="1.5" stroke-linecap="round" stroke-linejoin="round"/>
<path id="Vector_3" opacity="0" d="M19.5 0.5V19.5H0.5V0.5H19.5Z" stroke="var(--stroke-0, #3A3A3A)"/>
</g>
</svg>
