<svg preserveAspectRatio="none" width="100%" height="100%" overflow="visible" style="display: block;" viewBox="0 0 60 60" fill="none" xmlns="http://www.w3.org/2000/svg">
<g id="verify">
<path id="Vector" d="M26.884 6.1248C28.609 4.6498 31.434 4.6498 33.184 6.1248L37.134 9.5248C37.884 10.1748 39.284 10.6998 40.284 10.6998H44.534C47.184 10.6998 49.359 12.8748 49.359 15.5248V19.7748C49.359 20.7498 49.884 22.1748 50.534 22.9248L53.934 26.8748C55.409 28.5998 55.409 31.4248 53.934 33.1748L50.534 37.1248C49.884 37.8748 49.359 39.2748 49.359 40.2748V44.5248C49.359 47.1748 47.184 49.3498 44.534 49.3498H40.284C39.309 49.3498 37.884 49.8748 37.134 50.5248L33.184 53.9248C31.459 55.3998 28.634 55.3998 26.884 53.9248L22.934 50.5248C22.184 49.8748 20.784 49.3498 19.784 49.3498H15.459C12.809 49.3498 10.634 47.1748 10.634 44.5248V40.2498C10.634 39.2748 10.109 37.8748 9.48398 37.1248L6.10898 33.1498C4.65898 31.4248 4.65898 28.6248 6.10898 26.8998L9.48398 22.9248C10.109 22.1748 10.634 20.7748 10.634 19.7998V15.4998C10.634 12.8498 12.809 10.6748 15.459 10.6748H19.784C20.759 10.6748 22.184 10.1498 22.934 9.4998L26.884 6.1248Z" fill="var(--fill-0, #0BA243)"/>
<path id="Vector_2" d="M20.959 30.0002L26.984 36.0502L39.059 23.9502" stroke="var(--stroke-0, white)" stroke-width="3" stroke-linecap="round" stroke-linejoin="round"/>
<path id="Vector_3" opacity="0" d="M59.5 0.5V59.5H0.5V0.5H59.5Z" fill="var(--fill-0, #0BA243)" stroke="var(--stroke-0, white)"/>
</g>
</svg>
